<svg width="64" height="64" viewBox="0 0 64 64" fill="none" xmlns="http://www.w3.org/2000/svg">
<rect width="64" height="64" rx="8" fill="#363636"/>
<path d="M14.5059 19.704L11.0739 23.184V27.6H9.29794V10.8H11.0739V20.952L20.9379 10.8H22.9779L15.7059 18.408L23.4819 27.6H21.3699L14.5059 19.704Z" fill="white"/>
<path d="M38.4804 26.064V27.6H24.7044V26.376L35.8404 12.336H24.8724V10.8H38.1924V12.024L27.0804 26.064H38.4804Z" fill="white"/>
<path d="M56.0333 10.8V27.6H54.5693L43.7693 13.968V27.6H41.9933V10.8H43.4573L54.2813 24.432V10.8H56.0333Z" fill="white"/>
<path d="M15.972 47.792V53.6H14.22V47.792L7.5 36.8H9.396L15.156 46.232L20.916 36.8H22.692L15.972 47.792Z" fill="white"/>
<path d="M37.5664 52.064V53.6H23.7904V52.376L34.9264 38.336H23.9584V36.8H37.2784V38.024L26.1664 52.064H37.5664Z" fill="white"/>
<path d="M55.1192 36.8V53.6H53.6552L42.8552 39.968V53.6H41.0792V36.8H42.5432L53.3672 50.432V36.8H55.1192Z" fill="white"/>
</svg>
